<?xml version="1.0" encoding="utf-8"?>
<!-- Generator: Adobe Illustrator 16.0.0, SVG Export Plug-In . SVG Version: 6.00 Build 0)  -->
<!DOCTYPE svg PUBLIC "-//W3C//DTD SVG 1.1//EN" "http://www.w3.org/Graphics/SVG/1.1/DTD/svg11.dtd">
<svg version="1.1" id="Layer_1" xmlns="http://www.w3.org/2000/svg" xmlns:xlink="http://www.w3.org/1999/xlink" x="0px" y="0px"
	 width="283.464px" height="218.268px" viewBox="0 0 283.464 218.268" enable-background="new 0 0 283.464 218.268"
	 xml:space="preserve">
<g>
	<path fill-rule="evenodd" clip-rule="evenodd" fill="#FFFFFF" d="M120.795,12.912c-0.862,2.233,1.162,3.275,2.102,4.616
		c20.184,28.775,33.901,60.146,38.215,95.255c0.702,5.709,0.594,11.516,0.893,17.275c0.125,2.393-0.774,3.284-3.301,3.026
		C123.262,129.47,87.805,126,52.37,122.306c-6.658-0.694-13.397,0.528-20.018-1.294c-1.813-0.499-3.432-0.548-2.799-2.769
		c4.539-15.922,2.241-31.139-4.681-45.845c-1.727-3.669-3.747-7.252-6.054-10.582c-1.809-2.609-1.349-3.724,1.255-5.39
		c25.3-16.174,50.502-32.5,75.728-48.79c3.419-2.207,6.891-4.344,10.193-6.716c2.123-1.526,3.215-1.087,4.976,0.813
		c3.411,3.683,5.307,8.704,9.935,11.286C120.905,13.02,120.795,12.912,120.795,12.912z"/>
	<path fill-rule="evenodd" clip-rule="evenodd" fill="#FFFFFF" d="M124.306,14.713c26.612,32.461,47.181,67.542,47.485,111.186
		c0.032,4.694,1.75,3.824,4.66,2.816c22.04-7.634,44.645-11.526,68.025-9.732c12.66,0.971,24.695,4.249,35.82,10.515
		c0.962,0.542,1.77,1.357,3.168,2.449c-13.76-3.154-26.987-5.141-40.413-5.809c-25.626-1.276-50.052,2.671-72.277,16.352
		c-2.262,1.393-4.425,1.66-7.173,1.279c-38.862-5.384-77.965-8.296-117.073-11.156c-2.871-0.21-4.432,0.805-5.438,3.363
		c-1.204,3.061-1.841,6.058-1.138,9.41c0.951,4.531,3.009,6.771,8.076,7.187c25.881,2.121,51.742,4.53,77.581,7.127
		c5.699,0.573,10.675-1.062,15.802-2.844c19.038-6.622,38.086-13.207,57.155-19.74c1.225-0.42,2.984-2.185,3.861-0.117
		c0.874,2.061-1.418,2.255-2.758,2.77c-21.834,8.394-43.67,16.777-65.51,25.15c-1.42,0.546-2.833,0.972-4.443,0.782
		c-23.933-2.82-47.871-5.596-71.81-8.37c-5.22-0.605-10.438-1.258-15.672-1.704c-2.702-0.229-4.242-1.319-5.12-3.994
		c-2.159-6.574-2.731-13.04,1.102-19.129c1.861-2.956,0.844-3.749-2.027-3.951c-0.845-0.06-1.696-0.315-2.528-0.258
		c-3.37,0.235-5.617-0.627-4.674-5.377c9.661,0.846,19.519,1.679,29.37,2.577c28.229,2.577,56.457,5.179,84.684,7.775
		c5.407,0.498,10.888,0.627,16.195,1.646c4.818,0.926,5.652-0.682,5.555-5.133c-0.67-30.512-9.67-58.669-23.481-85.563
		c-5.189-10.103-11.881-19.277-17.492-29.112C123.975,14.97,124.138,14.838,124.306,14.713z"/>
	<path fill-rule="evenodd" clip-rule="evenodd" fill="#FFFFFF" d="M52.844,135.101c24.27,1.941,48.896,3.983,73.539,5.801
		c3.243,0.238,3.883,1.37,3.678,4.306c-0.21,3.017-0.351,6.229,0.458,9.077c1.109,3.905-0.64,3.965-3.481,3.662
		c-13.296-1.416-26.599-2.784-39.897-4.178c-12.454-1.307-24.899-2.697-37.363-3.908c-6.673-0.649-7.283-1.654-7.023-9.768
		c0.187-5.817,3.803-5.367,7.686-5.002C51.112,135.155,51.795,135.101,52.844,135.101z"/>
	<path fill-rule="evenodd" clip-rule="evenodd" fill="#FFFFFF" d="M186.38,114.203c13.741-5.331,27.938-8.422,42.718-8.094
		c11.096,0.246,21.898,2.413,32.357,6.162c1.232,0.441,2.634,0.783,3.481,2.416c-29.547-7.435-58.481-9.008-86.591,7.164
		c0.301-4.692,0.633-8.805,0.819-12.922c1.224-27.069-2.618-53.153-15.167-77.533c-4.213-8.185-9.586-15.535-15.583-22.502
		c-2.837-3.296-5.871-4.9-10.218-3.674c-0.958,0.27-2.292,0.72-3.167-0.575c9.788-3.263,11.756-2.763,17.142,3.645
		c15.632,18.595,23.716,40.455,27.789,64.043c2.056,11.9,2.998,23.899,2.755,35.984c-0.018,0.96,0.225,1.926,0.791,2.829
		c6.519-32.463,1.975-63.454-12.414-92.986c3.799,1.956,9.177,12.592,13.465,27.089c2.992,10.117,4.987,20.41,5.508,30.98
		c0.517,10.532-0.849,20.899-3.082,32.027c20.605-11.664,41.336-13.516,62.807-5.675c-3.954-0.611-7.892-1.442-11.869-1.772
		c-4.223-0.35-8.485-0.303-12.73-0.294c-12.618,0.027-24.543,2.793-35.568,9.11c-1.641,0.94-3.274,1.781-3.932,3.717
		c-0.842,0.24-2.555,0.127-2.113,1.173C184.137,115.84,185.479,114.951,186.38,114.203z"/>
	<path fill-rule="evenodd" clip-rule="evenodd" fill="#FFFFFF" d="M153.467,35.438c5.79,5.079,8.422,12.225,11.5,18.853
		c7.954,17.122,12.006,35.249,11.645,54.234c-0.031,1.69-0.199,3.382-0.386,5.064c-0.185,1.658-0.476,3.305-0.947,4.965
		c0.105-11.437-0.418-22.828-2.699-34.038c-3.276-16.09-9.063-31.252-17.382-45.435c-0.68-1.159-1.126-2.453-1.682-3.684
		L153.467,35.438z"/>
	<path fill-rule="evenodd" clip-rule="evenodd" fill="#FFFFFF" d="M123.818,15.109c-1.451-0.123-1.322-2.418-3.023-2.197
		c0,0,0.11,0.108,0.11,0.108c-0.25-0.567-0.501-1.135-0.751-1.702c0.464-0.045,1.096-0.308,1.363-0.1
		c1.196,0.928,2.296,1.984,2.788,3.495C124.138,14.838,123.975,14.97,123.818,15.109z"/>
	<path fill-rule="evenodd" clip-rule="evenodd" fill="#FFFFFF" d="M153.516,35.397c-0.211-0.242-0.443-0.47-0.621-0.734
		c-0.045-0.068,0.077-0.25,0.122-0.379c0.149,0.385,0.3,0.77,0.45,1.154C153.467,35.438,153.516,35.397,153.516,35.397z"/>
	<g>
		<path fill="#FFFFFF" d="M61.12,176.668l-13.896,41.217h-4.593L30.56,182.733l-12.13,35.152h-4.534L0,176.668h4.476l11.894,35.446
			l12.307-35.446h4.063l12.129,35.623l12.071-35.623H61.12z"/>
		<path fill="#FFFFFF" d="M93.682,206.875H70.718l-4.947,11.011h-4.534l18.842-41.217h4.298l18.842,41.217h-4.593L93.682,206.875z
			 M92.091,203.34l-9.892-22.139l-9.892,22.139H92.091z"/>
		<path fill="#FFFFFF" d="M144.497,176.668v41.217h-3.592l-26.497-33.444v33.444h-4.357v-41.217h3.592l26.556,33.444v-33.444
			H144.497z"/>
		<path fill="#FFFFFF" d="M157.92,176.668h16.781c4.357,0,8.205,0.873,11.542,2.62c3.336,1.747,5.927,4.18,7.772,7.301
			c1.844,3.12,2.768,6.684,2.768,10.687c0,4.005-0.924,7.566-2.768,10.688c-1.846,3.121-4.437,5.555-7.772,7.302
			c-3.337,1.746-7.185,2.62-11.542,2.62H157.92V176.668z M174.467,214.117c3.61,0,6.771-0.716,9.48-2.148
			c2.708-1.434,4.807-3.416,6.299-5.947c1.492-2.533,2.238-5.447,2.238-8.745c0-3.297-0.746-6.212-2.238-8.743
			c-1.492-2.532-3.591-4.514-6.299-5.947c-2.709-1.432-5.87-2.149-9.48-2.149h-12.189v33.681H174.467z"/>
		<path fill="#FFFFFF" d="M231.817,206.875h-22.963l-4.947,11.011h-4.533l18.842-41.217h4.299l18.842,41.217h-4.593L231.817,206.875
			z M230.227,203.34l-9.893-22.139l-9.892,22.139H230.227z"/>
	</g>
</g>
</svg>
